<svg preserveAspectRatio="none" overflow="visible" style="display: block;" width="16" height="16" viewBox="0 0 16 16" fill="none" xmlns="http://www.w3.org/2000/svg">
<g id="Link - YouTube link &#226;&#134;&#146; SVG">
<path id="Vector" d="M15.6653 4.124C15.4814 3.43107 14.9424 2.88851 14.2507 2.7C13.0033 2.36333 8 2.36333 8 2.36333C8 2.36333 2.99667 2.36333 1.74867 2.7C1.05729 2.88884 0.518628 3.43131 0.334667 4.124C0 5.38 0 8 0 8C0 8 0 10.62 0.334667 11.876C0.518624 12.5689 1.05763 13.1115 1.74933 13.3C2.99667 13.6367 8 13.6367 8 13.6367C8 13.6367 13.0033 13.6367 14.2513 13.3C14.9431 13.1116 15.4822 12.569 15.666 11.876C16 10.62 16 8 16 8C16 8 16 5.38 15.6653 4.124V4.124M6.36333 10.3787V5.62133L10.5453 8L6.36333 10.3787V10.3787" fill="#4D0851"/>
</g>
</svg>
