<svg preserveAspectRatio="none" overflow="visible" style="display: block;" width="14.6667" height="18.3333" viewBox="0 0 14.6667 18.3333" fill="none" xmlns="http://www.w3.org/2000/svg">
<g id="Container">
<path id="Icon" d="M1.83333 18.3333C1.32917 18.3333 0.897569 18.1538 0.538542 17.7948C0.179514 17.4358 0 17.0042 0 16.5V5.5C0 4.99583 0.179514 4.56424 0.538542 4.20521C0.897569 3.84618 1.32917 3.66667 1.83333 3.66667H3.66667V3.66667C3.66667 2.65833 4.02569 1.79514 4.74375 1.07708C5.46181 0.359028 6.325 0 7.33333 0C8.34167 0 9.20486 0.359028 9.92292 1.07708C10.641 1.79514 11 2.65833 11 3.66667V3.66667H12.8333C13.3375 3.66667 13.7691 3.84618 14.1281 4.20521C14.4872 4.56424 14.6667 4.99583 14.6667 5.5V16.5C14.6667 17.0042 14.4872 17.4358 14.1281 17.7948C13.7691 18.1538 13.3375 18.3333 12.8333 18.3333H1.83333V18.3333M1.83333 16.5H12.8333V16.5V16.5V5.5V5.5V5.5H11V7.33333C11 7.59306 10.9122 7.81076 10.7365 7.98646C10.5608 8.16215 10.3431 8.25 10.0833 8.25C9.82361 8.25 9.6059 8.16215 9.43021 7.98646C9.25451 7.81076 9.16667 7.59306 9.16667 7.33333V5.5H5.5V7.33333C5.5 7.59306 5.41215 7.81076 5.23646 7.98646C5.06076 8.16215 4.84306 8.25 4.58333 8.25C4.32361 8.25 4.1059 8.16215 3.93021 7.98646C3.75451 7.81076 3.66667 7.59306 3.66667 7.33333V5.5H1.83333V5.5V5.5V16.5V16.5V16.5V16.5M5.5 3.66667H9.16667V3.66667C9.16667 3.1625 8.98715 2.7309 8.62813 2.37188C8.2691 2.01285 7.8375 1.83333 7.33333 1.83333C6.82917 1.83333 6.39757 2.01285 6.03854 2.37188C5.67951 2.7309 5.5 3.1625 5.5 3.66667V3.66667V3.66667M1.83333 16.5V16.5V16.5V16.5V5.5V5.5V5.5V5.5V5.5V5.5V16.5V16.5V16.5V16.5" fill="#4F434C"/>
</g>
</svg>
